<svg xmlns="http://www.w3.org/2000/svg" width="1200" height="1200" fill="none">
  <rect width="1200" height="1200" fill="#1A1A1A" rx="3"/>
  <g opacity=".8">
    <!-- Background elements -->
    <path fill="#212121" d="M600.709 736.5c-75.454 0-136.621-61.167-136.621-136.62 0-75.454 61.167-136.621 136.621-136.621 75.453 0 136.62 61.167 136.62 136.621 0 75.453-61.167 136.62-136.62 136.62Z"/>
    <path stroke="#FF0000" stroke-width="2.418" d="M600.709 736.5c-75.454 0-136.621-61.167-136.621-136.62 0-75.454 61.167-136.621 136.621-136.621 75.453 0 136.62 61.167 136.62 136.621 0 75.453-61.167 136.62-136.62 136.62Z"/>
    
    <!-- Grid lines -->
    <path stroke="url(#a)" stroke-width="2.418" d="M0-1.209h553.581" transform="scale(1 -1) rotate(45 1163.11 91.165)"/>
    <path stroke="url(#b)" stroke-width="2.418" d="M404.846 598.671h391.726"/>
    <path stroke="url(#c)" stroke-width="2.418" d="M599.5 795.742V404.017"/>
    <path stroke="url(#d)" stroke-width="2.418" d="m795.717 796.597-391.441-391.44"/>
    
    <!-- Center circle -->
    <path fill="#1A1A1A" d="M600.709 656.704c-31.384 0-56.825-25.441-56.825-56.824 0-31.384 25.441-56.825 56.825-56.825 31.383 0 56.824 25.441 56.824 56.825 0 31.383-25.441 56.824-56.824 56.824Z"/>
    
    <!-- Briefcase icon -->
    <g transform="translate(580 580)">
      <path fill="#FF0000" fill-rule="evenodd" d="M40 12H24v-2c0-3.3-2.7-6-6-6H18c-3.3 0-6 2.7-6 6v2H0v36h40V12zM18 10h4c1.1 0 2 .9 2 2v2h-8v-2c0-1.1.9-2 2-2zm18 34H4V16h32v28z" clip-rule="evenodd"/>
      <path fill="#FF0000" fill-rule="evenodd" d="M24 26c0 1.1-.9 2-2 2h-8c-1.1 0-2-.9-2-2s.9-2 2-2h8c1.1 0 2 .9 2 2z" clip-rule="evenodd"/>
    </g>
    
    <path stroke="#FF0000" stroke-width="2.418" d="M600.709 656.704c-31.384 0-56.825-25.441-56.825-56.824 0-31.384 25.441-56.825 56.825-56.825 31.383 0 56.824 25.441 56.824 56.825 0 31.383-25.441 56.824-56.824 56.824Z"/>
  </g>
  
  <!-- Gradients -->
  <defs>
    <linearGradient id="a" x1="554.061" x2="-.48" y1=".083" y2=".087" gradientUnits="userSpaceOnUse">
      <stop stop-color="#FF0000" stop-opacity="0"/>
      <stop offset=".208" stop-color="#FF0000"/>
      <stop offset=".792" stop-color="#FF0000"/>
      <stop offset="1" stop-color="#FF0000" stop-opacity="0"/>
    </linearGradient>
    <linearGradient id="b" x1="796.912" x2="404.507" y1="599.963" y2="599.965" gradientUnits="userSpaceOnUse">
      <stop stop-color="#FF0000" stop-opacity="0"/>
      <stop offset=".208" stop-color="#FF0000"/>
      <stop offset=".792" stop-color="#FF0000"/>
      <stop offset="1" stop-color="#FF0000" stop-opacity="0"/>
    </linearGradient>
    <linearGradient id="c" x1="600.792" x2="600.794" y1="403.677" y2="796.082" gradientUnits="userSpaceOnUse">
      <stop stop-color="#FF0000" stop-opacity="0"/>
      <stop offset=".208" stop-color="#FF0000"/>
      <stop offset=".792" stop-color="#FF0000"/>
      <stop offset="1" stop-color="#FF0000" stop-opacity="0"/>
    </linearGradient>
    <linearGradient id="d" x1="404.85" x2="796.972" y1="403.903" y2="796.02" gradientUnits="userSpaceOnUse">
      <stop stop-color="#FF0000" stop-opacity="0"/>
      <stop offset=".208" stop-color="#FF0000"/>
      <stop offset=".792" stop-color="#FF0000"/>
      <stop offset="1" stop-color="#FF0000" stop-opacity="0"/>
    </linearGradient>
  </defs>
</svg>
